<?xml version="1.0" encoding="utf-8"?>
<!-- Generator: Adobe Illustrator 17.0.1, SVG Export Plug-In . SVG Version: 6.00 Build 0)  -->
<!DOCTYPE svg PUBLIC "-//W3C//DTD SVG 1.1//EN" "http://www.w3.org/Graphics/SVG/1.1/DTD/svg11.dtd">
<svg version="1.1" id="Layer_1" xmlns="http://www.w3.org/2000/svg" xmlns:xlink="http://www.w3.org/1999/xlink" x="0px" y="0px"
	 width="512px" height="512px" viewBox="0 0 512 512" enable-background="new 0 0 512 512" xml:space="preserve">

<g id="sector90">
  <g id="sector45" fill="#FFFFFF" stroke="#868686" stroke-width="0.216">	
	<polygon points="256,256 256,6 241.159,27.25 256,256"/>
	<polygon fill="#B1B1B1" points="256,256 222.614,24.313 241.159,27.25 256,256"/>
	<polygon points="256,256 209.618,51.781 222.614,24.312 256,256"/>
	<polygon fill="#B1B1B1" points="256,256 194.259,51.486 209.618,51.781 256,256"/>
	<polygon points="256,256 194.259,51.486 185.399,66.55 256,256"/>
	<polygon fill="#B1B1B1" points="256,256 171.811,66.549 185.399,66.55 256,256"/>
	<polygon points="256,256 171.811,66.549 162.804,78.069 256,256"/>
	<polygon fill="#B1B1B1" points="256,256 141.425,68.467 162.804,78.069 256,256"/>
	<polygon points="256,256 141.425,68.467 136.4,84.412 256,256"/>
	<polygon fill="#B1B1B1" points="256,256 108.344,70.535 136.4,84.412 256,256"/>
	<polygon points="256,256 108.344,70.535 108.931,90.023 256,256"/>
	<polygon fill="#B1B1B1" points="256,256 79.221,79.22 108.931,90.023 256,256"/>
  </g>
  <use xlink:href="#sector45" transform="rotate(-45 256,256)"/>
</g>
<use xlink:href="#sector90" transform="rotate(90 256,256)"/>
<use xlink:href="#sector90" transform="rotate(180 256,256)"/>
<use xlink:href="#sector90" transform="rotate(-90 256,256)"/>


<g id="path7710">
	<path fill="#205BA6" d="M186.084,353.613c-13.318-5.905-21.935-19.142-21.951-33.72V127.671h184.734v192.218
		c-0.014,14.582-8.632,27.819-21.953,33.724L256.5,384.861L186.084,353.613z"/>
	<path fill="#FFD400" d="M345.256,131.283v188.605c-0.014,12.752-7.402,24.924-19.805,30.423l-68.95,30.597l-68.95-30.597
		c-12.403-5.499-19.791-17.671-19.805-30.423V131.283H345.256 M352.48,124.059h-7.224H167.745h-7.224v7.224v188.605
		c0.018,16.014,9.478,30.544,24.102,37.027l68.948,30.596l2.93,1.3l2.93-1.3l68.95-30.597
		c14.621-6.482,24.082-21.013,24.099-37.018V131.283V124.059L352.48,124.059z"/>
</g>

<path id="path7306" fill="#FFD400" d="M256.501,145.151c-5.17,5.867-8.321,13.547-8.321,21.977
c0.306,18.509,2.576,36.98,2.774,55.483c0.41,17.245-4.762,33.441-11.051,49.241c-2.096,4.366-4.362,8.64-6.631,12.917
l-6.674-1.344c-6.005-1.201-9.911-7.041-8.711-13.047c1.051-5.256,5.676-8.905,10.834-8.929l2.427,0.26l-5.417-45.253
c-1.771-20.152-12.165-37.828-27.476-49.328c-2.631-1.976-5.419-3.783-8.321-5.375V322.48h37.097
c2.774,15.061,11.061,28.181,22.709,37.191c2.771,1.91,5.091,4.429,6.761,7.369c1.669-2.94,3.99-5.459,6.761-7.369
c11.648-9.01,19.935-22.13,22.709-37.191h37.097V161.753c-2.902,1.592-5.69,3.399-8.321,5.375
c-15.311,11.5-25.705,29.176-27.476,49.328l-5.417,45.253l2.427-0.26c5.159,0.024,9.784,3.674,10.834,8.929
c1.201,6.006-2.706,11.846-8.711,13.047l-6.674,1.344c-2.268-4.278-4.535-8.551-6.631-12.917
c-6.289-15.8-11.462-31.997-11.051-49.241c0.197-18.503,2.467-36.974,2.774-55.483
C264.821,158.698,261.671,151.018,256.501,145.151z M201.028,184.9c7.18,8.428,11.998,18.93,13.435,30.472l4.464,37.321
c-5.684,2.83-9.993,8.022-11.615,14.304h-6.284V184.9z M311.973,184.9v82.098h-6.284c-1.622-6.282-5.931-11.474-11.615-14.304
l4.464-37.321C299.975,203.83,304.793,193.327,311.973,184.9z M256.501,259.932c2.98,9.749,7.08,19.007,12.178,27.612
c-4.849,1.473-9.068,4.339-12.178,8.192c-3.109-3.854-7.329-6.719-12.178-8.192C249.42,278.939,253.52,269.681,256.501,259.932z
 M201.028,278.094h6.284c1.981,7.658,7.959,13.709,15.558,15.821l5.331,1.214c-1.427,5.175-2.21,10.628-2.21,16.255h-24.962
V278.094z M305.689,278.094h6.284v33.29H287.01c0-5.627-0.783-11.08-2.21-16.255l5.331-1.214
C297.73,291.803,303.708,285.752,305.689,278.094L305.689,278.094z M239.036,297.686c6.73,0.951,11.918,6.705,11.918,13.697
h-13.868C237.085,306.627,237.79,302.043,239.036,297.686z M273.966,297.686c1.246,4.357,1.95,8.941,1.95,13.697h-13.868
C262.048,304.391,267.236,298.638,273.966,297.686z M238.342,322.48h12.611v23.363
C244.833,339.444,240.387,331.408,238.342,322.48z M262.048,322.48h12.611c-2.045,8.928-6.491,16.964-12.611,23.363V322.48z"/>

</svg>
